<svg xmlns="http://www.w3.org/2000/svg" width="80" height="80" fill="none" viewBox="0 0 80 80"><mask id="mask0-icon1" width="80" height="80" x="0" y="0" mask-type="alpha" maskUnits="userSpaceOnUse"><circle cx="40" cy="40" r="40" fill="#D7D7F8"/></mask><g mask="url(#mask0-icon1)"><circle cx="40" cy="40" r="40" fill="#D7D7F8"/><mask id="mask1" width="67" height="73" x="-12" y="23" mask-type="alpha" maskUnits="userSpaceOnUse"><path fill="#4D17E2" d="M-12 23H33C45.1503 23 55 32.8497 55 45V96H-12V23Z"/></mask><g mask="url(#mask1)"><path fill="#695DE9" d="M-12 23H33C45.1503 23 55 32.8497 55 45V96H-12V23Z"/><path stroke="#fff" stroke-linecap="round" stroke-linejoin="round" stroke-width="4" d="M37 55H-4"/><path stroke="#B7B0F4" stroke-linecap="round" stroke-linejoin="round" stroke-width="4" d="M23 64L-4 64"/><rect width="52" height="34" x="23" y="13" fill="#5C52C7" rx="13"/></g><rect width="41" height="27" x="27" y="16" fill="#2B2467" rx="13"/><circle cx="47.5" cy="29.5" r="5.5" stroke="#fff" stroke-width="4"/></g></svg>